<?xml version="1.0" standalone="no"?>
<!DOCTYPE svg PUBLIC "-//W3C//DTD SVG 20010904//EN"
 "http://www.w3.org/TR/2001/REC-SVG-20010904/DTD/svg10.dtd">
<svg version="1.0" xmlns="http://www.w3.org/2000/svg"
 width="372.000000pt" height="372.000000pt" viewBox="0 0 372.000000 372.000000"
 preserveAspectRatio="xMidYMid meet">
<metadata>
Created by potrace 1.11, written by Peter Selinger 2001-2013
</metadata>
<g transform="translate(0.000000,372.000000) scale(0.100000,-0.100000)"
fill="#000000" stroke="none">
<path d="M105 3706 c-35 -15 -83 -67 -90 -99 -3 -12 -4 -803 -3 -1757 l3
-1735 23 -33 c48 -67 141 -85 207 -41 68 46 65 13 65 775 l0 689 738 -738
c578 -578 746 -741 776 -751 67 -23 145 7 179 69 7 14 10 230 9 719 l-1 700
733 -733 c579 -579 740 -735 771 -745 68 -24 132 -2 174 59 28 42 31 114 5
153 -10 15 -333 343 -718 728 -386 386 -711 712 -723 725 l-22 24 672 0 c370
0 687 3 705 8 88 22 132 132 87 216 -8 14 -407 418 -887 897 -825 824 -875
872 -915 879 -25 4 -57 2 -77 -5 -44 -14 -93 -70 -100 -112 -3 -18 -4 -333 -3
-700 1 -368 1 -668 0 -668 -1 0 -330 329 -731 730 -489 489 -742 735 -766 745
-43 18 -71 18 -111 1z m803 -1098 l592 -593 -588 1 c-323 1 -590 2 -594 3 -7
1 -12 1181 -5 1181 1 0 269 -267 595 -592z m1697 2 c322 -321 585 -587 585
-590 0 -3 -264 -5 -587 -5 l-588 1 -2 593 c0 326 0 591 2 589 2 -2 267 -266
590 -588z m-894 -910 c0 -20 0 -1060 0 -1123 l-1 -47 -588 587 c-324 324 -585
590 -581 593 5 3 269 6 588 6 516 0 581 -2 582 -16z"/>
</g>
</svg>
