<svg xmlns="http://www.w3.org/2000/svg" viewBox="0 0 64 64">
  <defs>
    <linearGradient id="s" x1="0" y1="0" x2="1" y2="0">
      <stop offset="0" stop-color="#ff8fb0"/><stop offset="1" stop-color="#d67e3e"/>
    </linearGradient>
    <linearGradient id="f" x1="0" y1="0" x2="0" y2="1">
      <stop offset="0" stop-color="#c9743a" stop-opacity=".45"/>
      <stop offset="1" stop-color="#c9743a" stop-opacity="0"/>
    </linearGradient>
  </defs>
  <rect width="64" height="64" fill="#0c0e13"/>
  <path d="M0.00 21.48L1.02 20.62L2.03 19.96L3.05 19.50L4.06 19.26L5.08 19.20L6.10 19.30L7.11 19.52L8.13 19.82L9.14 20.18L10.16 20.59L11.17 21.02L12.19 21.47L13.21 21.94L14.22 22.41L15.24 22.88L16.25 23.36L17.27 23.84L18.29 24.32L19.30 24.80L20.32 25.28L21.33 25.77L22.35 26.25L23.37 26.73L24.38 27.22L25.40 27.70L26.41 28.18L27.43 28.67L28.44 29.15L29.46 29.64L30.48 30.12L31.49 30.60L32.51 31.09L33.52 31.57L34.54 32.05L35.56 32.54L36.57 33.02L37.59 33.50L38.60 33.99L39.62 34.47L40.63 34.96L41.65 35.44L42.67 35.92L43.68 36.41L44.70 36.89L45.71 37.37L46.73 37.86L47.75 38.34L48.76 38.83L49.78 39.31L50.79 39.79L51.81 40.28L52.83 40.76L53.84 41.24L54.86 41.73L55.87 42.21L56.89 42.69L57.90 43.18L58.92 43.66L59.94 44.15L60.95 44.63L61.97 45.11L62.98 45.60L64.00 46.08L64 64L0 64Z" fill="url(#f)"/>
  <path d="M0.00 21.48L1.02 20.62L2.03 19.96L3.05 19.50L4.06 19.26L5.08 19.20L6.10 19.30L7.11 19.52L8.13 19.82L9.14 20.18L10.16 20.59L11.17 21.02L12.19 21.47L13.21 21.94L14.22 22.41L15.24 22.88L16.25 23.36L17.27 23.84L18.29 24.32L19.30 24.80L20.32 25.28L21.33 25.77L22.35 26.25L23.37 26.73L24.38 27.22L25.40 27.70L26.41 28.18L27.43 28.67L28.44 29.15L29.46 29.64L30.48 30.12L31.49 30.60L32.51 31.09L33.52 31.57L34.54 32.05L35.56 32.54L36.57 33.02L37.59 33.50L38.60 33.99L39.62 34.47L40.63 34.96L41.65 35.44L42.67 35.92L43.68 36.41L44.70 36.89L45.71 37.37L46.73 37.86L47.75 38.34L48.76 38.83L49.78 39.31L50.79 39.79L51.81 40.28L52.83 40.76L53.84 41.24L54.86 41.73L55.87 42.21L56.89 42.69L57.90 43.18L58.92 43.66L59.94 44.15L60.95 44.63L61.97 45.11L62.98 45.60L64.00 46.08" fill="none" stroke="url(#s)" stroke-width="4.5"
        stroke-linecap="round" stroke-linejoin="round"/>
</svg>
